<svg width="18" height="18" viewBox="0 0 18 18" fill="none" xmlns="http://www.w3.org/2000/svg">
<path d="M8.99967 0.333252C10.1489 0.333252 11.2511 0.789798 12.0638 1.60246C12.8765 2.41511 13.333 3.51731 13.333 4.66658C13.333 5.81586 12.8765 6.91806 12.0638 7.73071C11.2511 8.54337 10.1489 8.99992 8.99967 8.99992C7.8504 8.99992 6.7482 8.54337 5.93554 7.73071C5.12289 6.91806 4.66634 5.81586 4.66634 4.66658C4.66634 3.51731 5.12289 2.41511 5.93554 1.60246C6.7482 0.789798 7.8504 0.333252 8.99967 0.333252ZM8.99967 11.1666C13.788 11.1666 17.6663 13.1058 17.6663 15.4999V17.6666H0.333008V15.4999C0.333008 13.1058 4.21134 11.1666 8.99967 11.1666Z" fill="white"/>
</svg>
